<?xml version="1.0" standalone="no"?>
<!DOCTYPE svg PUBLIC "-//W3C//DTD SVG 20010904//EN"
 "http://www.w3.org/TR/2001/REC-SVG-20010904/DTD/svg10.dtd">
<svg version="1.0" xmlns="http://www.w3.org/2000/svg"
 width="2000.000000pt" height="1254.000000pt" viewBox="0 0 2000.000000 1254.000000"
 preserveAspectRatio="xMidYMid meet">
<metadata>
Created by potrace 1.15, written by Peter Selinger 2001-2017
</metadata>
<g transform="translate(0.000000,1254.000000) scale(0.100000,-0.100000)"
fill="#000000" stroke="none">
<path d="M10113 10595 c-78 -22 -130 -51 -190 -107 -96 -92 -139 -197 -131
-324 15 -227 231 -365 459 -294 120 37 211 117 266 236 25 52 28 71 28 159 0
89 -3 106 -28 157 -69 141 -247 217 -404 173z m138 -266 c87 -46 -4 -209 -116
-209 -110 0 -104 132 10 201 34 21 76 24 106 8z"/>
<path d="M9820 9739 c-302 -34 -655 -156 -925 -319 l-83 -50 -836 0 c-686 0
-842 -2 -869 -14 -105 -45 -115 -185 -16 -238 32 -17 74 -18 709 -18 l675 0
-80 -80 -80 -80 -1163 0 c-1280 0 -1212 3 -1252 -62 -28 -45 -27 -117 2 -153
45 -57 -3 -55 1143 -55 580 0 1055 -2 1055 -5 0 -2 -24 -42 -54 -87 -29 -46
-68 -111 -87 -145 l-34 -63 -775 0 c-718 0 -778 -1 -809 -18 -50 -25 -76 -65
-76 -117 0 -52 26 -92 76 -117 31 -17 88 -18 748 -18 675 0 713 -1 706 -17
-27 -67 -89 -273 -111 -371 -33 -141 -35 -206 -10 -245 41 -61 -112 -57 2098
-57 1985 0 2024 0 2055 20 17 10 37 29 43 40 38 71 63 512 41 721 -69 655
-377 1128 -895 1374 -187 89 -400 148 -631 175 -105 12 -457 11 -565 -1z m614
-274 c572 -88 945 -386 1125 -899 72 -205 109 -508 91 -752 -5 -71 -10 -132
-10 -136 0 -10 -3690 -10 -3690 0 0 24 58 212 94 306 184 476 507 885 916
1160 113 77 359 197 492 241 123 40 316 81 445 95 119 12 415 4 537 -15z"/>
<path d="M9575 9186 c-338 -114 -667 -350 -883 -633 -122 -160 -222 -351 -222
-424 0 -78 52 -132 130 -132 69 0 95 24 149 136 172 356 498 646 891 792 120
44 163 101 140 184 -10 38 -58 91 -83 91 -7 0 -21 2 -32 5 -11 2 -51 -6 -90
-19z"/>
<path d="M7493 7235 c-60 -18 -137 -70 -173 -115 -119 -150 -112 -346 16 -459
88 -77 -112 -71 2304 -69 l2165 3 57 28 c76 37 159 128 188 204 29 76 25 196
-8 260 -28 54 -80 106 -135 135 l-42 23 -2165 2 c-1778 1 -2173 -1 -2207 -12z
m4301 -261 c24 -23 20 -40 -18 -82 l-34 -37 -2102 -3 c-1443 -1 -2107 1 -2121
8 -23 13 -24 31 -3 71 32 62 -115 58 2171 59 1888 0 2093 -2 2107 -16z"/>
<path d="M8237 5160 c-53 -42 -59 -82 -64 -482 -3 -203 -7 -368 -8 -368 -2 0
-30 13 -62 30 -90 46 -159 60 -295 60 -66 0 -137 -4 -157 -9 -20 -5 -61 -15
-91 -21 -82 -18 -213 -82 -286 -141 -204 -162 -308 -455 -269 -760 24 -195 75
-313 189 -436 136 -147 341 -233 556 -233 154 0 327 57 446 147 17 13 33 23
37 23 3 0 10 -15 16 -33 26 -79 92 -137 154 -137 52 0 140 43 176 86 55 67 48
147 -21 252 -24 37 -49 79 -56 94 -9 21 -10 210 -6 790 7 783 0 1020 -30 1092
-19 47 -60 66 -139 66 -49 0 -70 -5 -90 -20z m-324 -1074 c132 -32 206 -108
253 -261 24 -77 27 -352 5 -430 -16 -57 -52 -130 -78 -160 -109 -124 -339
-152 -518 -63 -104 52 -177 144 -220 273 -33 103 -36 261 -5 351 37 108 115
201 208 248 96 49 249 67 355 42z"/>
<path d="M2385 4996 c-131 -27 -205 -100 -233 -231 -30 -137 -32 -192 -32
-933 0 -935 4 -984 85 -1018 47 -19 123 -18 165 4 26 13 39 29 53 66 16 43 19
99 24 462 l6 414 304 0 c339 0 381 6 428 62 20 24 25 41 25 85 0 67 -21 106
-70 130 -31 16 -73 18 -361 21 l-326 3 -6 187 c-13 354 -9 406 35 445 19 16
56 17 467 17 276 0 460 4 483 10 79 22 126 96 109 173 -13 54 -33 76 -89 97
-50 19 -77 20 -530 19 -327 -1 -496 -5 -537 -13z"/>
<path d="M10057 4995 c-252 -55 -422 -192 -494 -396 -23 -65 -26 -90 -26 -204
-1 -98 4 -142 16 -179 56 -158 186 -275 377 -339 57 -19 267 -81 365 -108 165
-46 272 -118 316 -214 26 -57 26 -214 0 -270 -39 -84 -139 -151 -251 -167
-121 -18 -205 -20 -274 -9 -176 29 -229 50 -336 129 -84 63 -138 80 -188 63
-90 -32 -122 -109 -87 -212 43 -125 237 -233 485 -270 113 -17 318 -22 384 -9
218 41 351 109 467 238 110 123 159 257 159 432 0 172 -35 265 -140 371 -98
99 -207 153 -430 213 -273 74 -337 99 -422 161 -26 19 -59 56 -75 82 -24 41
-28 59 -28 123 1 91 25 146 86 190 74 53 127 65 299 65 167 0 178 -2 371 -66
150 -50 195 -51 243 -5 32 30 36 39 36 85 0 68 -18 108 -68 153 -114 103 -320
159 -582 157 -80 -1 -171 -7 -203 -14z"/>
<path d="M11660 4893 c-24 -9 -51 -36 -67 -68 -19 -36 -42 -218 -43 -337 l0
-88 -115 0 c-133 0 -185 -13 -232 -56 -31 -29 -33 -36 -33 -96 0 -51 5 -71 21
-92 38 -49 66 -56 219 -56 l140 0 1 -317 c1 -175 1 -347 0 -383 -2 -138 25
-484 42 -522 42 -99 202 -106 242 -12 27 65 34 191 41 714 l7 520 128 0 c204
0 279 40 279 148 0 112 -75 152 -288 152 l-129 0 5 73 c12 190 -32 365 -102
408 -30 18 -84 24 -116 12z"/>
<path d="M17358 4884 c-60 -32 -88 -148 -88 -365 l0 -119 -124 0 c-137 0 -189
-14 -235 -64 -32 -34 -41 -119 -17 -164 29 -55 64 -66 226 -72 l145 -5 6 -550
c6 -554 11 -631 45 -682 56 -87 201 -83 236 6 22 57 30 207 36 706 l7 520 145
5 c121 4 152 8 185 26 75 39 101 106 71 179 -30 70 -99 95 -273 95 l-133 0 0
138 c0 197 -27 291 -100 339 -38 27 -92 29 -132 7z"/>
<path d="M12624 4441 c-40 -24 -62 -79 -80 -200 -21 -138 -20 -1035 1 -1214 8
-70 22 -141 30 -158 23 -44 71 -69 132 -69 74 0 99 15 130 78 24 50 27 69 36
241 5 102 10 310 11 461 1 186 6 282 14 296 39 71 159 135 307 164 192 37 263
87 279 192 17 117 -56 188 -192 188 -121 0 -214 -44 -334 -158 -48 -46 -88
-80 -88 -76 -1 56 -23 181 -37 205 -37 63 -145 89 -209 50z"/>
<path d="M4105 4410 c-16 -5 -54 -14 -84 -20 -265 -60 -477 -270 -552 -545
-31 -116 -31 -344 0 -464 96 -364 374 -581 743 -581 359 0 635 183 762 503 37
93 56 210 56 344 0 248 -67 424 -220 573 -84 82 -198 147 -300 170 -30 7 -68
16 -84 21 -36 11 -280 10 -321 -1z m267 -304 c201 -48 307 -192 325 -437 18
-253 -107 -482 -293 -536 -132 -38 -171 -41 -274 -19 -125 26 -195 71 -258
166 -62 92 -82 171 -82 320 0 218 65 357 209 449 94 61 255 85 373 57z"/>
<path d="M5895 4410 c-11 -5 -32 -9 -46 -9 -31 -1 -135 -34 -199 -64 -165 -76
-310 -233 -374 -406 -43 -116 -51 -168 -50 -326 1 -177 19 -256 91 -405 39
-82 59 -108 137 -185 74 -73 108 -98 176 -131 130 -63 222 -84 363 -84 324 0
588 153 722 420 67 133 95 259 95 426 0 284 -112 520 -308 647 -96 62 -146 82
-295 116 -55 13 -283 14 -312 1z m271 -307 c219 -50 340 -277 304 -569 -24
-194 -121 -337 -266 -393 -144 -55 -243 -54 -393 2 -100 38 -187 146 -226 281
-26 89 -23 280 5 371 66 211 236 330 455 320 44 -2 98 -7 121 -12z"/>
<path d="M14225 4408 c-135 -33 -134 -33 -226 -77 -321 -156 -476 -561 -373
-976 22 -85 85 -210 142 -280 96 -118 253 -212 407 -244 28 -6 71 -15 97 -21
61 -13 292 -13 360 1 169 33 183 37 258 72 101 48 150 108 150 184 0 52 -19
85 -60 105 -48 23 -87 22 -205 -6 -159 -38 -215 -46 -310 -46 -267 0 -437 96
-495 279 -11 35 -20 65 -20 68 0 7 27 1 115 -26 87 -27 263 -51 367 -51 93 0
257 23 325 46 231 78 338 234 319 465 -16 191 -124 347 -300 434 -70 35 -96
44 -196 67 -62 14 -306 18 -355 6z m301 -304 c85 -19 113 -34 152 -79 43 -48
61 -86 69 -140 13 -101 -37 -178 -136 -206 -63 -19 -395 -19 -471 -1 -70 18
-172 52 -186 64 -29 22 31 172 97 243 101 109 301 160 475 119z"/>
<path d="M15870 4404 c-106 -25 -125 -31 -184 -58 -213 -98 -359 -285 -412
-529 -22 -99 -22 -317 0 -420 49 -229 188 -410 386 -504 91 -43 107 -48 270
-83 95 -20 350 -6 495 28 101 23 207 83 244 137 50 73 33 166 -35 198 -46 23
-80 21 -199 -7 -167 -40 -234 -48 -345 -43 -185 9 -280 39 -364 117 -47 43
-99 136 -111 199 -8 39 -15 39 110 1 222 -66 505 -64 709 4 226 76 327 244
296 490 -25 199 -155 350 -375 436 -21 8 -68 21 -148 39 -63 15 -268 12 -337
-5z m316 -300 c88 -20 114 -34 158 -86 84 -97 83 -248 -1 -305 -58 -40 -110
-48 -308 -48 -194 0 -218 3 -350 47 -89 30 -91 34 -66 113 27 83 55 128 115
183 102 94 290 134 452 96z"/>
</g>
</svg>
